<svg version="1.1" id="Layer_1" xmlns="http://www.w3.org/2000/svg" xmlns:xlink="http://www.w3.org/1999/xlink" x="0px" y="0px"
	 width="100%" viewBox="0 0 225 225" enable-background="new 0 0 225 225" xml:space="preserve">
<path fill="#FEFDFC" opacity="1.000000" stroke="none" 
	d="
M1.000000,89.000000 
	C1.000000,59.333340 1.000000,30.166677 1.000000,1.000012 
	C75.999977,1.000008 150.999954,1.000008 225.999954,1.000004 
	C225.999969,75.999969 225.999969,150.999939 225.999985,225.999939 
	C151.000046,225.999954 76.000092,225.999954 1.000068,225.999969 
	C1.000000,180.500000 1.000000,135.000000 1.000000,89.000000 
M134.827026,109.783699 
	C133.797012,110.296608 132.179718,110.560303 131.838104,111.365326 
	C130.312927,114.959419 128.853714,118.636963 127.951309,122.422760 
	C127.194405,125.598137 119.454414,127.195824 125.686470,131.964157 
	C123.723457,137.889084 121.855598,143.849625 119.669022,149.690857 
	C119.414642,150.370422 117.314896,150.779694 116.228798,150.553864 
	C115.667686,150.437180 115.038048,148.598618 115.156418,147.625229 
	C115.637482,143.669266 116.869278,139.746536 116.864975,135.812607 
	C116.862602,133.650101 115.465149,130.472778 113.758324,129.610519 
	C112.004684,128.724609 109.072014,129.958862 106.731621,130.561630 
	C105.888840,130.778687 105.267891,131.857101 105.275986,131.849411 
	C103.504784,131.351593 102.141144,130.491348 101.412331,130.866013 
	C100.034264,131.574448 98.378799,132.796112 97.965195,134.148956 
	C95.977798,140.649231 94.624687,147.352112 92.443329,153.778366 
	C91.888412,155.413132 89.127190,156.299011 87.379715,157.528992 
	C87.065063,155.695847 86.255440,153.785950 86.525642,152.043488 
	C87.453590,146.059509 88.759666,140.134155 90.058022,133.488251 
	C83.488838,135.130981 76.481766,134.042831 72.898140,140.000732 
	C69.629074,145.435684 66.937157,151.477554 65.436485,157.605927 
	C64.695145,160.633392 66.172203,165.999283 68.495369,167.568527 
	C72.138100,170.029160 75.348366,166.057587 77.956146,163.201752 
	C78.480316,162.627701 78.978699,162.030136 79.593727,161.322952 
	C82.059036,165.526382 85.308693,165.661606 89.172180,163.931763 
	C90.944519,163.138214 92.906319,162.446365 94.814789,162.349304 
	C98.162994,162.179047 99.276367,160.340103 99.838303,157.404770 
	C100.838516,152.180115 101.806641,146.918976 103.337395,141.838562 
	C104.150360,139.140427 106.116188,136.789658 107.561607,134.282089 
	C108.238213,134.517059 108.914818,134.752029 109.591423,134.987015 
	C109.591423,137.009018 109.819496,139.063431 109.537865,141.045410 
	C109.117821,144.001526 108.144089,146.880768 107.751144,149.838577 
	C106.852516,156.602692 111.328201,159.966568 117.590691,157.274902 
	C119.087830,156.631409 120.330826,155.416153 121.797752,154.676010 
	C122.805923,154.167358 124.065277,153.615601 125.098892,153.783142 
	C134.120697,155.245544 140.127716,151.899857 143.178879,143.047165 
	C144.744843,138.503601 145.458252,133.668655 146.975784,129.104660 
	C147.559509,127.349106 149.306549,125.980362 150.523544,124.435371 
	C151.112656,124.744118 151.701782,125.052872 152.290894,125.361618 
	C151.430542,130.193497 150.312454,134.996780 149.772476,139.864197 
	C149.030563,146.551559 154.424850,151.033447 159.624725,147.305771 
	C164.556091,143.770569 170.217651,145.359467 174.924362,142.501846 
	C174.548035,143.532730 174.024643,144.291031 173.346085,144.866348 
	C170.302979,147.446503 167.109024,149.858307 164.173172,152.552780 
	C160.963272,155.498810 160.347977,159.412735 162.571625,162.918457 
	C164.930603,166.637543 168.734665,165.359970 172.025620,163.947586 
	C177.440063,161.623917 179.197968,156.772827 179.885162,151.488358 
	C180.455261,147.104416 182.121811,143.994141 186.284195,141.753723 
	C191.765152,138.803558 195.160599,133.860916 196.603882,127.670540 
	C197.226578,124.999741 197.040680,123.084747 193.465836,122.931419 
	C191.598495,128.882294 190.038162,135.022675 182.923477,137.818634 
	C184.568558,128.674576 186.116531,120.070251 187.681046,111.373985 
	C181.788620,111.711777 181.810059,111.716202 180.811829,116.557953 
	C179.636703,122.257660 178.633347,128.008286 177.073975,133.602615 
	C176.672058,135.044571 174.464828,135.983307 173.086899,137.153214 
	C172.662506,135.604507 171.746628,134.004349 171.902359,132.516357 
	C172.454697,127.239166 173.649353,122.015457 173.939529,116.735153 
	C174.004410,115.554588 171.341858,113.144234 170.006699,113.194771 
	C167.348831,113.295372 166.299637,115.433907 167.109634,118.294441 
	C169.329819,126.135178 165.804230,132.795410 162.332321,139.345657 
	C161.812317,140.326752 159.832840,140.534302 158.528519,141.099701 
	C158.047104,139.791092 157.011307,138.403931 157.183594,137.187943 
	C157.812042,132.752411 158.844559,128.374161 159.723358,123.974037 
	C160.492325,120.123810 158.338165,117.966774 154.488007,118.929962 
	C153.292236,119.229111 152.250214,120.142830 152.327576,120.098846 
	C149.332535,119.011192 146.939926,117.261360 145.315262,117.805283 
	C143.756241,118.327232 142.411514,121.104691 141.989639,123.105408 
	C140.714813,129.151352 140.142578,135.346451 138.840363,141.385040 
	C138.420883,143.330154 136.791824,145.174896 135.310577,146.661484 
	C134.591599,147.383057 132.634552,147.709412 131.790970,147.233826 
	C130.938690,146.753326 130.288177,145.011703 130.398499,143.907394 
	C130.661240,141.277420 131.505173,138.711639 131.966827,136.093903 
	C132.589371,132.563828 132.509445,128.854111 137.163666,127.526794 
	C138.221573,127.225098 138.628540,124.640884 139.608734,122.513420 
	C137.509125,122.513420 136.323822,122.513420 134.800995,122.513420 
	C135.399857,119.401680 136.093765,116.663902 136.389816,113.883759 
	C136.533188,112.537483 135.930069,111.111725 134.827026,109.783699 
M159.171921,179.425568 
	C153.455673,171.547424 145.383728,173.488541 137.760590,174.633148 
	C131.595184,175.558884 127.587196,179.786316 126.312294,185.722656 
	C125.606766,189.007797 123.977608,189.631729 121.340500,189.814972 
	C93.334358,191.761002 70.115021,182.338882 52.061890,160.648468 
	C50.767830,159.093674 49.503216,157.514359 48.087334,155.777695 
	C45.279053,162.385773 46.431160,167.193558 51.474312,171.984894 
	C71.566772,191.074173 95.003113,200.131561 122.798660,197.294388 
	C125.001549,197.069534 127.665710,196.817291 129.451111,197.793243 
	C140.304047,203.725647 149.115601,202.050949 157.080933,192.129013 
	C159.976883,188.521698 161.259979,184.603836 159.171921,179.425568 
M93.306114,83.816956 
	C92.097076,89.500473 91.276176,95.309425 89.498848,100.809288 
	C88.726151,103.200325 86.320534,105.651764 84.022781,106.751144 
	C82.538506,107.461327 79.904427,105.768402 77.815849,105.161186 
	C77.057793,112.163704 82.150986,115.641388 89.245491,112.414909 
	C95.973335,109.355186 98.621994,103.299683 100.028244,96.552628 
	C100.894775,92.395065 101.553871,88.194283 102.336609,83.843300 
	C107.898041,84.733566 110.972473,87.536453 111.964882,92.494553 
	C112.519379,95.264862 112.703278,98.113335 113.325699,100.865166 
	C114.326500,105.289932 117.084297,107.057053 120.864944,105.960587 
	C125.150467,104.717690 127.851944,100.133377 126.748779,96.942604 
	C125.127022,97.426315 122.704674,98.763992 122.113800,98.196091 
	C120.909363,97.038498 120.242645,94.875908 120.155327,93.088249 
	C119.928230,88.438828 121.502151,83.364990 116.154938,80.607933 
	C119.218277,78.089767 122.350792,76.073761 124.779816,73.415047 
	C132.619247,64.834297 129.545029,53.323734 118.318207,50.411461 
	C114.163673,49.333759 109.426270,50.669308 104.960228,50.590523 
	C96.450493,50.440399 90.091652,54.936005 84.818871,60.659611 
	C82.237038,63.462196 80.524757,67.823410 80.096352,71.666191 
	C79.522507,76.813538 84.516342,80.019409 89.963249,78.746307 
	C86.149513,74.189125 86.112190,69.457634 89.210442,64.599503 
	C92.744347,59.058262 99.830070,55.135231 105.741493,55.689770 
	C97.588249,63.088181 94.854858,72.732613 93.306114,83.816956 
M181.160400,75.814285 
	C182.509003,72.104691 183.857605,68.395096 185.206207,64.685501 
	C185.978088,64.849907 186.749985,65.014313 187.521881,65.178719 
	C187.521881,67.003548 187.690079,68.847336 187.487015,70.649284 
	C187.059311,74.444763 186.206009,78.203285 185.958954,82.005028 
	C185.707016,85.881554 187.369034,88.102440 191.787338,88.214165 
	C198.550125,88.385178 207.630249,77.840477 205.980972,71.267258 
	C205.665253,70.008995 205.190811,68.790558 204.789597,67.553749 
	C201.622635,72.411720 200.527863,75.735588 198.769470,78.660515 
	C198.004044,79.933739 195.876099,80.387871 194.366974,81.214005 
	C193.940521,79.734810 193.095917,78.231071 193.180969,76.781898 
	C193.325760,74.314796 194.087051,71.887779 194.531372,69.433418 
	C195.190720,65.791222 196.198914,61.611687 192.355148,59.463299 
	C188.289124,57.190689 185.148254,60.050331 182.499069,63.071335 
	C182.300293,63.298012 181.932938,63.376854 181.643936,63.524414 
	C181.577087,63.070061 181.510223,62.615707 181.443359,62.161350 
	C178.622223,62.442833 175.779236,62.589664 172.985916,63.042740 
	C170.047455,63.519352 167.072937,64.060966 164.299026,65.078262 
	C163.530838,65.359993 163.333115,67.414520 163.023743,68.692024 
	C161.771149,73.864296 161.028610,79.220016 159.175720,84.162331 
	C158.213150,86.729828 155.326599,88.576004 153.309189,90.748024 
	C153.040222,88.008308 152.286697,85.210693 152.605667,82.541229 
	C153.222427,77.379669 154.443756,72.290359 155.600159,66.191956 
	C149.775131,68.007500 144.215698,68.318344 140.645157,71.143143 
	C132.717209,77.415268 129.760651,86.464104 131.009628,96.588249 
	C131.555267,101.011253 134.729813,102.598488 138.578979,100.322975 
	C140.934555,98.930443 142.846664,96.787781 144.957932,94.982002 
	C144.902130,95.404861 144.846329,95.827713 144.790512,96.250572 
	C147.612762,96.689247 150.449112,97.537743 153.252975,97.441437 
	C155.646088,97.359238 157.963943,95.871208 160.383759,95.584373 
	C163.465973,95.219032 164.427109,93.488998 165.067871,90.784187 
	C166.523468,84.639862 168.110886,78.514809 169.992950,72.490723 
	C170.559250,70.678123 172.273193,69.224068 173.461395,67.605774 
	C174.128891,67.927887 174.796402,68.250008 175.463898,68.572128 
	C174.177200,76.252869 172.890503,83.933617 171.576309,91.778435 
	C177.003387,91.647804 178.958145,89.302475 179.280975,84.923096 
	C179.486847,82.130478 180.415192,79.391113 181.160400,75.814285 
M76.417709,53.864845 
	C79.443985,52.498589 82.767082,51.548244 85.418167,49.656265 
	C88.438606,47.500698 92.367859,44.913471 93.214317,41.786316 
	C94.779068,36.005547 98.509216,34.914310 103.195480,34.343224 
	C106.991364,33.880634 110.807014,33.285225 114.615753,33.271790 
	C136.765015,33.193657 155.945801,40.696697 171.710297,56.366798 
	C175.290115,59.925186 179.116959,58.058357 183.181625,58.731770 
	C182.881668,57.489799 182.891632,57.114315 182.715378,56.877350 
	C182.120255,56.077213 181.499741,55.287949 180.817123,54.562046 
	C158.015106,30.313801 130.295120,21.301449 97.591721,27.684984 
	C95.532707,28.086893 92.776741,29.221767 91.444115,28.345032 
	C82.607567,22.531479 74.856628,26.897648 67.006058,30.431295 
	C66.088173,30.844450 65.651581,32.326866 64.991859,33.313587 
	C66.281929,33.497051 67.721527,34.140331 68.834267,33.778473 
	C72.287331,32.655563 75.566338,30.997189 79.019829,29.875977 
	C80.260254,29.473259 81.804939,30.007696 83.210770,30.114429 
	C78.940025,33.156937 74.542206,34.923004 70.300888,37.007500 
	C69.271187,37.513569 68.756905,39.068356 68.005623,40.140919 
	C69.315376,40.218212 70.728996,40.646854 71.912460,40.296967 
	C74.126411,39.642414 76.185654,38.482380 78.348373,37.632137 
	C80.947571,36.610298 83.587593,35.692295 86.209938,34.729332 
	C86.459747,35.340004 86.709549,35.950680 86.959358,36.561356 
	C82.291016,38.758781 77.565163,40.846470 72.999435,43.239670 
	C72.001503,43.762756 71.574989,45.376011 70.885315,46.487202 
	C72.091576,46.571503 73.470810,47.078152 74.474236,46.667198 
	C78.883415,44.861404 83.184006,42.790474 87.523956,40.815655 
	C87.835716,41.118134 88.147469,41.420612 88.459229,41.723091 
	C87.329544,43.009644 86.427666,44.691151 85.023170,45.501236 
	C82.019737,47.233551 78.708771,48.422501 75.614349,50.010506 
	C73.164223,51.267868 72.045166,52.760296 76.417709,53.864845 
M27.689913,172.193512 
	C25.518984,171.669662 23.348055,171.145813 21.227081,170.634018 
	C20.857365,176.186569 22.159252,177.768829 27.786598,178.185730 
	C34.781811,178.703995 41.372192,172.797821 42.969383,164.474899 
	C43.805721,160.116776 44.493443,155.730133 45.251877,151.335556 
	C55.823437,151.316711 63.621056,146.777695 69.316872,138.669510 
	C74.391403,131.445724 73.080368,122.651718 66.522583,117.701111 
	C54.173641,108.378647 26.063362,119.093994 23.163670,134.229080 
	C21.984726,140.382629 26.886475,145.334717 32.881432,144.046616 
	C27.003227,132.972641 34.578960,121.549644 49.356327,120.245789 
	C41.606205,127.527657 38.531368,136.492935 37.081699,146.200287 
	C36.393898,150.805954 36.144386,155.581589 34.676296,159.936356 
	C33.254143,164.154861 30.523893,167.932373 27.689913,172.193512 
M38.041439,97.715813 
	C41.101093,83.732750 47.889835,71.791069 57.694801,61.442505 
	C61.474884,57.452850 61.502243,52.642727 58.069355,49.576294 
	C54.703075,46.569359 49.634918,47.053539 46.253422,51.116016 
	C29.095892,71.728798 22.548353,95.376152 25.971962,122.245934 
	C32.109665,118.743057 37.672115,115.635460 36.561516,107.356010 
	C36.183262,104.536110 37.430698,101.498146 38.041439,97.715813 
M191.800766,93.710007 
	C192.360611,102.125717 192.920456,110.541428 193.490906,119.116524 
	C199.936127,120.957054 201.127502,123.321892 199.116730,130.261337 
	C197.250854,136.700714 192.909012,141.004990 187.715637,144.871201 
	C185.810715,146.289352 183.707855,148.609558 183.379593,150.773773 
	C182.019409,159.741379 178.164917,166.333313 168.760117,168.454697 
	C169.347336,172.597717 171.499725,175.551575 175.049194,175.562805 
	C177.781921,175.571442 181.294144,174.116821 183.123398,172.100494 
	C190.777328,163.663864 196.216812,153.773376 199.748642,142.939438 
	C205.549759,125.144409 205.830750,107.255661 200.422623,89.050644 
	C197.237305,90.426666 194.430756,91.639061 191.800766,93.710007 
M112.631966,161.977310 
	C107.296837,161.824295 101.397179,159.388641 97.874367,165.773132 
	C118.230713,174.357162 143.969528,167.711655 154.067047,150.047058 
	C151.300476,150.677063 149.162842,150.609573 147.725937,151.579834 
	C137.377716,158.567398 126.082123,162.229553 112.631966,161.977310 
M60.945423,109.031464 
	C62.053127,98.040245 65.658684,87.865158 72.929214,79.596245 
	C76.862991,75.122292 76.898277,70.534065 76.346336,65.078148 
	C71.830734,69.240372 67.476868,73.505424 64.052902,78.418533 
	C57.947758,87.178917 56.030689,97.207069 57.064762,107.767380 
	C57.184338,108.988541 58.276428,110.114471 58.917629,111.284554 
	C59.559509,110.794579 60.201385,110.304596 60.945423,109.031464 
z"/>
<path fill="#FDBA17" opacity="1.000000" stroke="none" 
	d="
M135.245972,109.752823 
	C135.930069,111.111725 136.533188,112.537483 136.389816,113.883759 
	C136.093765,116.663902 135.399857,119.401680 134.800995,122.513420 
	C136.323822,122.513420 137.509125,122.513420 139.608734,122.513420 
	C138.628540,124.640884 138.221573,127.225098 137.163666,127.526794 
	C132.509445,128.854111 132.589371,132.563828 131.966827,136.093903 
	C131.505173,138.711639 130.661240,141.277420 130.398499,143.907394 
	C130.288177,145.011703 130.938690,146.753326 131.790970,147.233826 
	C132.634552,147.709412 134.591599,147.383057 135.310577,146.661484 
	C136.791824,145.174896 138.420883,143.330154 138.840363,141.385040 
	C140.142578,135.346451 140.714813,129.151352 141.989639,123.105408 
	C142.411514,121.104691 143.756241,118.327232 145.315262,117.805283 
	C146.939926,117.261360 149.332535,119.011192 152.327576,120.098846 
	C152.250214,120.142830 153.292236,119.229111 154.488007,118.929962 
	C158.338165,117.966774 160.492325,120.123810 159.723358,123.974037 
	C158.844559,128.374161 157.812042,132.752411 157.183594,137.187943 
	C157.011307,138.403931 158.047104,139.791092 158.528519,141.099701 
	C159.832840,140.534302 161.812317,140.326752 162.332321,139.345657 
	C165.804230,132.795410 169.329819,126.135178 167.109634,118.294441 
	C166.299637,115.433907 167.348831,113.295372 170.006699,113.194771 
	C171.341858,113.144234 174.004410,115.554588 173.939529,116.735153 
	C173.649353,122.015457 172.454697,127.239166 171.902359,132.516357 
	C171.746628,134.004349 172.662506,135.604507 173.086914,137.153214 
	C174.464828,135.983307 176.672058,135.044571 177.073975,133.602615 
	C178.633347,128.008286 179.636703,122.257660 180.811829,116.557953 
	C181.810059,111.716202 181.788620,111.711777 187.681046,111.373985 
	C186.116531,120.070251 184.568558,128.674576 182.923477,137.818634 
	C190.038162,135.022675 191.598495,128.882294 193.465836,122.931419 
	C197.040680,123.084747 197.226578,124.999741 196.603882,127.670540 
	C195.160599,133.860916 191.765152,138.803558 186.284195,141.753723 
	C182.121811,143.994141 180.455261,147.104416 179.885162,151.488358 
	C179.197968,156.772827 177.440063,161.623917 172.025620,163.947586 
	C168.734665,165.359970 164.930603,166.637543 162.571625,162.918457 
	C160.347977,159.412735 160.963272,155.498810 164.173172,152.552780 
	C167.109024,149.858307 170.302979,147.446503 173.346085,144.866348 
	C174.024643,144.291031 174.548035,143.532730 174.924362,142.501846 
	C170.217651,145.359467 164.556091,143.770569 159.624725,147.305771 
	C154.424850,151.033447 149.030563,146.551559 149.772476,139.864197 
	C150.312454,134.996780 151.430542,130.193497 152.290894,125.361618 
	C151.701782,125.052872 151.112656,124.744118 150.523544,124.435371 
	C149.306549,125.980362 147.559509,127.349106 146.975784,129.104660 
	C145.458252,133.668655 144.744843,138.503601 143.178879,143.047165 
	C140.127716,151.899857 134.120697,155.245544 125.098892,153.783142 
	C124.065277,153.615601 122.805923,154.167358 121.797752,154.676010 
	C120.330826,155.416153 119.087830,156.631409 117.590691,157.274902 
	C111.328201,159.966568 106.852516,156.602692 107.751144,149.838577 
	C108.144089,146.880768 109.117821,144.001526 109.537865,141.045410 
	C109.819496,139.063431 109.591423,137.009018 109.591423,134.987015 
	C108.914818,134.752029 108.238213,134.517059 107.561607,134.282089 
	C106.116188,136.789658 104.150360,139.140427 103.337395,141.838562 
	C101.806641,146.918976 100.838516,152.180115 99.838303,157.404770 
	C99.276367,160.340103 98.162994,162.179047 94.814789,162.349304 
	C92.906319,162.446365 90.944519,163.138214 89.172180,163.931763 
	C85.308693,165.661606 82.059036,165.526382 79.593727,161.322952 
	C78.978699,162.030136 78.480316,162.627701 77.956146,163.201752 
	C75.348366,166.057587 72.138100,170.029160 68.495369,167.568527 
	C66.172203,165.999283 64.695145,160.633392 65.436485,157.605927 
	C66.937157,151.477554 69.629074,145.435684 72.898140,140.000732 
	C76.481766,134.042831 83.488838,135.130981 90.058022,133.488251 
	C88.759666,140.134155 87.453590,146.059509 86.525642,152.043488 
	C86.255440,153.785950 87.065063,155.695847 87.379715,157.528992 
	C89.127190,156.299011 91.888412,155.413132 92.443329,153.778366 
	C94.624687,147.352112 95.977798,140.649231 97.965195,134.148956 
	C98.378799,132.796112 100.034264,131.574448 101.412331,130.866013 
	C102.141144,130.491348 103.504784,131.351593 105.275986,131.849411 
	C105.267891,131.857101 105.888840,130.778687 106.731621,130.561630 
	C109.072014,129.958862 112.004684,128.724609 113.758324,129.610519 
	C115.465149,130.472778 116.862602,133.650101 116.864975,135.812607 
	C116.869278,139.746536 115.637482,143.669266 115.156418,147.625229 
	C115.038048,148.598618 115.667686,150.437180 116.228798,150.553864 
	C117.314896,150.779694 119.414642,150.370422 119.669022,149.690857 
	C121.855598,143.849625 123.723457,137.889084 125.686478,131.964157 
	C119.454414,127.195824 127.194405,125.598137 127.951309,122.422760 
	C128.853714,118.636963 130.312927,114.959419 131.838104,111.365326 
	C132.179718,110.560303 133.797012,110.296608 135.245972,109.752823 
M72.212715,157.757996 
	C74.800987,161.943314 77.618240,159.517487 78.456650,157.045013 
	C80.389206,151.345901 81.328934,145.310150 82.747116,139.078598 
	C75.588196,140.057816 71.951836,146.742218 72.212715,157.757996 
M168.360855,159.856125 
	C173.138290,158.249786 173.336136,154.339600 173.222366,149.298126 
	C170.571747,151.639160 168.191818,153.386505 166.275452,155.545349 
	C164.727890,157.288666 164.614563,159.248077 168.360855,159.856125 
z"/>
<path fill="#060606" opacity="1.000000" stroke="none" 
	d="
M159.358475,179.744812 
	C161.259979,184.603836 159.976883,188.521698 157.080933,192.129013 
	C149.115601,202.050949 140.304047,203.725647 129.451111,197.793243 
	C127.665710,196.817291 125.001549,197.069534 122.798660,197.294388 
	C95.003113,200.131561 71.566772,191.074173 51.474312,171.984894 
	C46.431160,167.193558 45.279053,162.385773 48.087334,155.777695 
	C49.503216,157.514359 50.767830,159.093674 52.061890,160.648468 
	C70.115021,182.338882 93.334358,191.761002 121.340500,189.814972 
	C123.977608,189.631729 125.606766,189.007797 126.312294,185.722656 
	C127.587196,179.786316 131.595184,175.558884 137.760590,174.633148 
	C145.383728,173.488541 153.455673,171.547424 159.358475,179.744812 
z"/>
<path fill="#FDBA18" opacity="1.000000" stroke="none" 
	d="
M93.417343,83.403008 
	C94.854858,72.732613 97.588249,63.088181 105.741493,55.689770 
	C99.830070,55.135231 92.744347,59.058262 89.210442,64.599503 
	C86.112190,69.457634 86.149513,74.189125 89.963249,78.746307 
	C84.516342,80.019409 79.522507,76.813538 80.096352,71.666191 
	C80.524757,67.823410 82.237038,63.462196 84.818871,60.659611 
	C90.091652,54.936005 96.450493,50.440399 104.960228,50.590523 
	C109.426270,50.669308 114.163673,49.333759 118.318207,50.411461 
	C129.545029,53.323734 132.619247,64.834297 124.779816,73.415047 
	C122.350792,76.073761 119.218277,78.089767 116.154938,80.607933 
	C121.502151,83.364990 119.928230,88.438828 120.155327,93.088249 
	C120.242645,94.875908 120.909363,97.038498 122.113800,98.196091 
	C122.704674,98.763992 125.127022,97.426315 126.748779,96.942604 
	C127.851944,100.133377 125.150467,104.717690 120.864944,105.960587 
	C117.084297,107.057053 114.326500,105.289932 113.325699,100.865166 
	C112.703278,98.113335 112.519379,95.264862 111.964882,92.494553 
	C110.972473,87.536453 107.898041,84.733566 102.336609,83.843300 
	C101.553871,88.194283 100.894775,92.395065 100.028244,96.552628 
	C98.621994,103.299683 95.973335,109.355186 89.245491,112.414909 
	C82.150986,115.641388 77.057793,112.163704 77.815849,105.161186 
	C79.904427,105.768402 82.538506,107.461327 84.022781,106.751144 
	C86.320534,105.651764 88.726151,103.200325 89.498848,100.809288 
	C91.276176,95.309425 92.097076,89.500473 93.417343,83.403008 
M107.770874,60.422665 
	C106.193901,65.804138 104.616928,71.185608 102.934479,76.926994 
	C114.331947,76.769112 121.608505,70.745041 119.858109,63.235291 
	C119.166504,60.268124 115.725571,57.811283 113.127274,55.603733 
	C112.840637,55.360210 109.851860,58.297131 107.770874,60.422665 
z"/>
<path fill="#FDBA17" opacity="1.000000" stroke="none" 
	d="
M181.089996,76.221085 
	C180.415192,79.391113 179.486847,82.130478 179.280975,84.923096 
	C178.958145,89.302475 177.003387,91.647804 171.576309,91.778435 
	C172.890503,83.933617 174.177200,76.252869 175.463898,68.572128 
	C174.796402,68.250008 174.128891,67.927887 173.461395,67.605774 
	C172.273193,69.224068 170.559250,70.678123 169.992950,72.490723 
	C168.110886,78.514809 166.523468,84.639862 165.067871,90.784187 
	C164.427109,93.488998 163.465973,95.219032 160.383759,95.584373 
	C157.963943,95.871208 155.646088,97.359238 153.252975,97.441437 
	C150.449112,97.537743 147.612762,96.689247 144.790512,96.250572 
	C144.846329,95.827713 144.902130,95.404861 144.957932,94.982002 
	C142.846664,96.787781 140.934555,98.930443 138.578979,100.322975 
	C134.729813,102.598488 131.555267,101.011253 131.009628,96.588249 
	C129.760651,86.464104 132.717209,77.415268 140.645157,71.143143 
	C144.215698,68.318344 149.775131,68.007500 155.600159,66.191956 
	C154.443756,72.290359 153.222427,77.379669 152.605667,82.541229 
	C152.286697,85.210693 153.040222,88.008308 153.309174,90.748024 
	C155.326599,88.576004 158.213150,86.729828 159.175720,84.162331 
	C161.028610,79.220016 161.771149,73.864296 163.023743,68.692024 
	C163.333115,67.414520 163.530838,65.359993 164.299026,65.078262 
	C167.072937,64.060966 170.047455,63.519352 172.985916,63.042740 
	C175.779236,62.589664 178.622223,62.442833 181.443359,62.161350 
	C181.510223,62.615707 181.577087,63.070061 181.643936,63.524414 
	C181.932938,63.376854 182.300293,63.298012 182.499069,63.071335 
	C185.148254,60.050331 188.289124,57.190689 192.355148,59.463299 
	C196.198914,61.611687 195.190720,65.791222 194.531372,69.433418 
	C194.087051,71.887779 193.325760,74.314796 193.180969,76.781898 
	C193.095917,78.231071 193.940521,79.734810 194.366974,81.214005 
	C195.876099,80.387871 198.004044,79.933739 198.769470,78.660515 
	C200.527863,75.735588 201.622635,72.411720 204.789597,67.553749 
	C205.190811,68.790558 205.665253,70.008995 205.980972,71.267258 
	C207.630249,77.840477 198.550125,88.385178 191.787338,88.214165 
	C187.369034,88.102440 185.707016,85.881554 185.958954,82.005028 
	C186.206009,78.203285 187.059311,74.444763 187.487015,70.649284 
	C187.690079,68.847336 187.521881,67.003548 187.521881,65.178719 
	C186.749985,65.014313 185.978088,64.849907 185.206207,64.685501 
	C183.857605,68.395096 182.509003,72.104691 181.089996,76.221085 
M139.125015,79.870613 
	C138.507721,82.774910 137.585693,85.660881 137.409378,88.591705 
	C137.328491,89.936432 138.704254,92.517792 139.433380,92.522842 
	C140.947571,92.533310 143.467728,91.508186 143.823288,90.364433 
	C145.649353,84.490242 146.919876,78.443352 148.517715,71.912086 
	C142.637009,72.213860 141.190002,75.881340 139.125015,79.870613 
z"/>
<path fill="#080808" opacity="1.000000" stroke="none" 
	d="
M76.055664,53.944046 
	C72.045166,52.760296 73.164223,51.267868 75.614349,50.010506 
	C78.708771,48.422501 82.019737,47.233551 85.023170,45.501236 
	C86.427666,44.691151 87.329544,43.009644 88.459229,41.723091 
	C88.147469,41.420612 87.835716,41.118134 87.523956,40.815655 
	C83.184006,42.790474 78.883415,44.861404 74.474236,46.667198 
	C73.470810,47.078152 72.091576,46.571503 70.885315,46.487202 
	C71.574989,45.376011 72.001503,43.762756 72.999435,43.239670 
	C77.565163,40.846470 82.291016,38.758781 86.959358,36.561356 
	C86.709549,35.950680 86.459747,35.340004 86.209938,34.729332 
	C83.587593,35.692295 80.947571,36.610298 78.348373,37.632137 
	C76.185654,38.482380 74.126411,39.642414 71.912460,40.296967 
	C70.728996,40.646854 69.315376,40.218212 68.005623,40.140923 
	C68.756905,39.068356 69.271187,37.513569 70.300888,37.007500 
	C74.542206,34.923004 78.940025,33.156937 83.210770,30.114429 
	C81.804939,30.007696 80.260254,29.473259 79.019829,29.875977 
	C75.566338,30.997189 72.287331,32.655563 68.834267,33.778473 
	C67.721527,34.140331 66.281929,33.497051 64.991859,33.313583 
	C65.651581,32.326866 66.088173,30.844450 67.006058,30.431295 
	C74.856628,26.897648 82.607567,22.531479 91.444115,28.345032 
	C92.776741,29.221767 95.532707,28.086893 97.591721,27.684984 
	C130.295120,21.301449 158.015106,30.313801 180.817123,54.562046 
	C181.499741,55.287949 182.120255,56.077213 182.715378,56.877350 
	C182.891632,57.114315 182.881668,57.489799 183.181625,58.731770 
	C179.116959,58.058357 175.290115,59.925186 171.710297,56.366798 
	C155.945801,40.696697 136.765015,33.193657 114.615753,33.271790 
	C110.807014,33.285225 106.991364,33.880634 103.195480,34.343224 
	C98.509216,34.914310 94.779068,36.005547 93.214317,41.786316 
	C92.367859,44.913471 88.438606,47.500698 85.418167,49.656265 
	C82.767082,51.548244 79.443985,52.498589 76.055664,53.944046 
z"/>
<path fill="#FDBA18" opacity="1.000000" stroke="none" 
	d="
M28.029037,172.048553 
	C30.523893,167.932373 33.254143,164.154861 34.676296,159.936356 
	C36.144386,155.581589 36.393898,150.805954 37.081699,146.200287 
	C38.531368,136.492935 41.606205,127.527657 49.356327,120.245789 
	C34.578960,121.549644 27.003227,132.972641 32.881432,144.046616 
	C26.886475,145.334717 21.984726,140.382629 23.163670,134.229080 
	C26.063362,119.093994 54.173641,108.378647 66.522583,117.701111 
	C73.080368,122.651718 74.391403,131.445724 69.316872,138.669510 
	C63.621056,146.777695 55.823437,151.316711 45.251877,151.335556 
	C44.493443,155.730133 43.805721,160.116776 42.969383,164.474899 
	C41.372192,172.797821 34.781811,178.703995 27.786598,178.185730 
	C22.159252,177.768829 20.857365,176.186569 21.227081,170.634018 
	C23.348055,171.145813 25.518984,171.669662 28.029037,172.048553 
M49.167583,144.535172 
	C53.167061,142.079025 57.954258,140.337814 60.983013,137.000656 
	C65.627785,131.882919 64.045601,124.670830 58.723831,121.514091 
	C56.264801,120.055466 54.546555,120.003952 52.550671,122.731880 
	C47.998539,128.953629 47.891769,136.321732 46.497589,143.366959 
	C46.437790,143.669144 47.752800,144.243393 49.167583,144.535172 
z"/>
<path fill="#050505" opacity="1.000000" stroke="none" 
	d="
M37.988373,98.137817 
	C37.430698,101.498146 36.183262,104.536110 36.561516,107.356010 
	C37.672115,115.635460 32.109665,118.743057 25.971962,122.245934 
	C22.548353,95.376152 29.095892,71.728798 46.253422,51.116016 
	C49.634918,47.053539 54.703075,46.569359 58.069355,49.576294 
	C61.502243,52.642727 61.474884,57.452850 57.694801,61.442505 
	C47.889835,71.791069 41.101093,83.732750 37.988373,98.137817 
z"/>
<path fill="#050505" opacity="1.000000" stroke="none" 
	d="
M191.712494,93.280731 
	C194.430756,91.639061 197.237305,90.426666 200.422623,89.050644 
	C205.830750,107.255661 205.549759,125.144409 199.748642,142.939438 
	C196.216812,153.773376 190.777328,163.663864 183.123398,172.100494 
	C181.294144,174.116821 177.781921,175.571442 175.049194,175.562805 
	C171.499725,175.551575 169.347336,172.597717 168.760117,168.454697 
	C178.164917,166.333313 182.019409,159.741379 183.379593,150.773773 
	C183.707855,148.609558 185.810715,146.289352 187.715637,144.871201 
	C192.909012,141.004990 197.250854,136.700714 199.116730,130.261337 
	C201.127502,123.321892 199.936127,120.957054 193.490906,119.116524 
	C192.920456,110.541428 192.360611,102.125717 191.712494,93.280731 
z"/>
<path fill="#0F7B48" opacity="1.000000" stroke="none" 
	d="
M113.099297,161.994690 
	C126.082123,162.229553 137.377716,158.567398 147.725937,151.579834 
	C149.162842,150.609573 151.300476,150.677063 154.067047,150.047058 
	C143.969528,167.711655 118.230713,174.357162 97.874367,165.773132 
	C101.397179,159.388641 107.296837,161.824295 113.099297,161.994690 
z"/>
<path fill="#0F7C48" opacity="1.000000" stroke="none" 
	d="
M60.894344,109.423042 
	C60.201385,110.304596 59.559509,110.794579 58.917629,111.284554 
	C58.276428,110.114471 57.184338,108.988541 57.064762,107.767380 
	C56.030689,97.207069 57.947758,87.178917 64.052902,78.418533 
	C67.476868,73.505424 71.830734,69.240372 76.346336,65.078148 
	C76.898277,70.534065 76.862991,75.122292 72.929214,79.596245 
	C65.658684,87.865158 62.053127,98.040245 60.894344,109.423042 
z"/>
<path fill="#FEFCF5" opacity="1.000000" stroke="none" 
	d="
M72.135620,157.350800 
	C71.951836,146.742218 75.588196,140.057816 82.747116,139.078598 
	C81.328934,145.310150 80.389206,151.345901 78.456650,157.045013 
	C77.618240,159.517487 74.800987,161.943314 72.135620,157.350800 
z"/>
<path fill="#FDF7E5" opacity="1.000000" stroke="none" 
	d="
M167.993744,159.881836 
	C164.614563,159.248077 164.727890,157.288666 166.275452,155.545349 
	C168.191818,153.386505 170.571747,151.639160 173.222366,149.298126 
	C173.336136,154.339600 173.138290,158.249786 167.993744,159.881836 
z"/>
<path fill="#FEFDF8" opacity="1.000000" stroke="none" 
	d="
M107.943588,60.090828 
	C109.851860,58.297131 112.840637,55.360210 113.127274,55.603733 
	C115.725571,57.811283 119.166504,60.268124 119.858109,63.235291 
	C121.608505,70.745041 114.331947,76.769112 102.934479,76.926994 
	C104.616928,71.185608 106.193901,65.804138 107.943588,60.090828 
z"/>
<path fill="#FEFBF2" opacity="1.000000" stroke="none" 
	d="
M139.259460,79.509964 
	C141.190002,75.881340 142.637009,72.213860 148.517715,71.912086 
	C146.919876,78.443352 145.649353,84.490242 143.823288,90.364433 
	C143.467728,91.508186 140.947571,92.533310 139.433380,92.522842 
	C138.704254,92.517792 137.328491,89.936432 137.409378,88.591705 
	C137.585693,85.660881 138.507721,82.774910 139.259460,79.509964 
z"/>
<path fill="#FEFCF7" opacity="1.000000" stroke="none" 
	d="
M48.797478,144.613037 
	C47.752800,144.243393 46.437790,143.669144 46.497589,143.366959 
	C47.891769,136.321732 47.998539,128.953629 52.550671,122.731880 
	C54.546555,120.003952 56.264801,120.055466 58.723831,121.514091 
	C64.045601,124.670830 65.627785,131.882919 60.983013,137.000656 
	C57.954258,140.337814 53.167061,142.079025 48.797478,144.613037 
z"/>
</svg>